<svg xmlns="http://www.w3.org/2000/svg" width="16" height="16" viewBox="0 0 16 16"><path d="M13 0h-10c-1.657 0-3 1.343-3 3v10c0 1.657 1.343 3 3 3h10c1.657 0 3-1.343 3-3v-10c0-1.657-1.343-3-3-3zm-1.02 6.204l.006.255c0 2.604-1.981 5.604-5.604 5.604-1.112 0-2.147-.326-3.019-.885.154.018.311.028.47.028.923 0 1.772-.315 2.446-.843-.862-.016-1.589-.586-1.84-1.368.121.023.243.034.371.034.18 0 .354-.023.519-.068-.901-.182-1.58-.977-1.58-1.931v-.025c.266.148.569.236.892.247-.528-.353-.876-.956-.876-1.639 0-.361.097-.699.266-.99.971 1.192 2.423 1.976 4.06 2.058-.034-.144-.051-.295-.051-.449 0-1.087.882-1.969 1.97-1.969.566 0 1.078.239 1.438.622.448-.089.87-.253 1.251-.478-.147.46-.459.846-.866 1.09.397-.047.778-.154 1.131-.31-.264.394-.599.741-.984 1.017z"/></svg>