<svg xmlns="http://www.w3.org/2000/svg" width="960" height="560" viewBox="0 0 960 560"><circle fill="#244F7C" stroke="#000" stroke-miterlimit="10" cx="418.708" cy="278.792" r="179.167"/><path fill="#FFD825" stroke="#000" stroke-miterlimit="10" d="M442.5 143.5c0-6.627-5.373-12-12-12h-24c-6.627 0-12 5.373-12 12v272c0 6.627 5.373 12 12 12h24c6.627 0 12-5.373 12-12v-272zM554.417 302.968c6.627.022 12.019-5.332 12.041-11.959l.082-24c.023-6.627-5.331-12.019-11.958-12.041l-271.999-.936c-6.627-.022-12.019 5.332-12.041 11.958l-.082 24c-.023 6.626 5.331 12.018 11.958 12.041l271.999.937z"/></svg>