<?xml version="1.0" encoding="utf-8"?>
<!-- Generator: Adobe Illustrator 16.0.0, SVG Export Plug-In . SVG Version: 6.00 Build 0)  -->
<!DOCTYPE svg PUBLIC "-//W3C//DTD SVG 1.1//EN" "http://www.w3.org/Graphics/SVG/1.1/DTD/svg11.dtd">
<svg version="1.1" id="Layer_1" xmlns="http://www.w3.org/2000/svg" xmlns:xlink="http://www.w3.org/1999/xlink" x="0px" y="0px"
	 width="960px" height="560px" viewBox="0 0 960 560" enable-background="new 0 0 960 560" xml:space="preserve">
<circle fill="#244F7C" stroke="#000000" stroke-miterlimit="10" cx="418.708" cy="278.792" r="179.167"/>
<path fill="#FFD825" stroke="#000000" stroke-miterlimit="10" d="M442.5,143.5c0-6.627-5.373-12-12-12h-24c-6.627,0-12,5.373-12,12
	v272c0,6.627,5.373,12,12,12h24c6.627,0,12-5.373,12-12V143.5z"/>
<path fill="#FFD825" stroke="#000000" stroke-miterlimit="10" d="M554.417,302.968c6.627,0.022,12.019-5.332,12.041-11.959l0.082-24
	c0.023-6.627-5.331-12.019-11.958-12.041l-271.999-0.936c-6.627-0.022-12.019,5.332-12.041,11.958l-0.082,24
	c-0.023,6.626,5.331,12.018,11.958,12.041L554.417,302.968z"/>
</svg>
